HIERARCHY
ROOT reference
{
  OFFSET 0 0 0
  CHANNELS 6 Xposition Yposition Zposition Zrotation Xrotation Yrotation
  JOINT Hips
  {
    OFFSET 6.92585 87.1781 21.7545
    CHANNELS 6 Xposition Yposition Zposition Zrotation Xrotation Yrotation
    JOINT Spine
    {
      OFFSET 0 7.81434 0
      CHANNELS 6 Xposition Yposition Zposition Zrotation Xrotation Yrotation
      JOINT Spine1
      {
        OFFSET 0 23.3781 0
        CHANNELS 6 Xposition Yposition Zposition Zrotation Xrotation Yrotation
        JOINT Neck
        {
          OFFSET 0 23.2821 2.11656
          CHANNELS 6 Xposition Yposition Zposition Zrotation Xrotation Yrotation
          JOINT Head
          {
            OFFSET 0 13.3416 -1.90594
            CHANNELS 6 Xposition Yposition Zposition Zrotation Xrotation Yrotation
            End Site
            {
              OFFSET 0 23.8242 0
            }
          }
        }
        JOINT LeftShoulder
        {
          OFFSET 3.82472 21.4916 -0.175476
          CHANNELS 6 Xposition Yposition Zposition Zrotation Xrotation Yrotation
          JOINT LeftArm
          {
            OFFSET 10.8239 0 0
            CHANNELS 6 Xposition Yposition Zposition Zrotation Xrotation Yrotation
            JOINT LeftForeArm
            {
              OFFSET 28.5356 0 0
              CHANNELS 6 Xposition Yposition Zposition Zrotation Xrotation Yrotation
              JOINT LeftHand
              {
                OFFSET 24.5315 0 0
                CHANNELS 6 Xposition Yposition Zposition Zrotation Xrotation Yrotation
                End Site
                {
                  OFFSET 14.2945 0 0
                }
              }
            }
          }
        }
        JOINT RightShoulder
        {
          OFFSET -3.77033 21.4916 -0.175476
          CHANNELS 6 Xposition Yposition Zposition Zrotation Xrotation Yrotation
          JOINT RightArm
          {
            OFFSET -10.8239 0 0
            CHANNELS 6 Xposition Yposition Zposition Zrotation Xrotation Yrotation
            JOINT RightForeArm
            {
              OFFSET -28.5356 0 0
              CHANNELS 6 Xposition Yposition Zposition Zrotation Xrotation Yrotation
              JOINT RightHand
              {
                OFFSET -24.5315 0 0
                CHANNELS 6 Xposition Yposition Zposition Zrotation Xrotation Yrotation
                End Site
                {
                  OFFSET -14.2945 0 0
                }
              }
            }
          }
        }
      }
    }
    JOINT LeftUpLeg
    {
      OFFSET 9.52968 0 0
      CHANNELS 6 Xposition Yposition Zposition Zrotation Xrotation Yrotation
      JOINT LeftLeg
      {
        OFFSET 0 -40.1884 0
        CHANNELS 6 Xposition Yposition Zposition Zrotation Xrotation Yrotation
        JOINT LeftFoot
        {
          OFFSET 0 -39.9954 0
          CHANNELS 6 Xposition Yposition Zposition Zrotation Xrotation Yrotation
          JOINT LeftToeBase
          {
            OFFSET 0 -6.19429 14.2945
            CHANNELS 6 Xposition Yposition Zposition Zrotation Xrotation Yrotation
            End Site
            {
              OFFSET 0 0 3.81187
            }
          }
        }
      }
    }
    JOINT RightUpLeg
    {
      OFFSET -9.52968 0 0
      CHANNELS 6 Xposition Yposition Zposition Zrotation Xrotation Yrotation
      JOINT RightLeg
      {
        OFFSET 0 -40.1884 0
        CHANNELS 6 Xposition Yposition Zposition Zrotation Xrotation Yrotation
        JOINT RightFoot
        {
          OFFSET 0 -39.9954 0
          CHANNELS 6 Xposition Yposition Zposition Zrotation Xrotation Yrotation
          JOINT RightToeBase
          {
            OFFSET 0 -6.19429 14.2945
            CHANNELS 6 Xposition Yposition Zposition Zrotation Xrotation Yrotation
            End Site
            {
              OFFSET 0 0 3.81187
            }
          }
        }
      }
    }
  }
}
MOTION
Frames:	7
Frame Time:	0.004
0 0 0 0 0 -0 -11.6658 80.0579 -202.354 -0.391621 -3.81402 4.83492 -1.77636e-015 7.81434 2.84217e-014 -0.979585 -0.429125 -0.49176 0 23.3781 0 0.984764 -4.12419 -0.452681 0 23.2821 2.11656 3.33314 25.2183 2.59854 -3.55271e-015 13.3416 -1.90594 -4.92159 -4.16047 2.11682 3.82472 21.4916 -0.175476 15.0777 2.93283 6.26838 10.8239 2.84217e-014 0 -18.738 0.507041 3.97082 28.5356 0 0 -0.325175 0.590857 2.80385 24.5315 0 2.84217e-014 1.56192 0.606083 0.533553 -3.77033 21.4916 -0.175476 -15.3143 -2.60163 7.86648 -10.8239 0 -2.84217e-014 11.8201 -4.36941 -2.79658 -28.5356 2.84217e-014 0 0.841142 9.82377 -2.04775 -24.5315 2.84217e-014 -2.84217e-014 -0.187471 9.83875 -0.103658 9.52968 0 0 -2.19053 3.31129 1.71784 0 -40.1884 -2.84217e-014 0.196205 9.36033 -5.33149 -4.44089e-016 -39.9954 2.84217e-014 -5.71506e-016 -3.18055e-015 -3.97569e-016 0 -6.19429 14.2945 3.23025e-016 -1.59028e-015 -3.97569e-016 -9.52968 0 0 3.9236 2.91698 4.9081 3.55271e-015 -40.1884 2.84217e-014 -0.778314 9.63069 -2.33031 0 -39.9954 2.84217e-014 2.61564 -22.1337 1.63268 1.77636e-015 -6.19429 14.2945 3.97569e-016 0 -1.59028e-015 
0 0 0 0 0 -0 -11.6343 80.0579 -202.254 -0.376289 -3.74663 4.9901 -1.77636e-015 7.81434 2.84217e-014 -0.928473 -0.518439 -0.522996 -1.77636e-015 23.3781 2.84217e-014 0.902037 -4.20852 -0.48574 1.77636e-015 23.2821 2.11656 3.35942 25.2744 2.54657 0 13.3416 -1.90594 -4.94199 -3.99614 2.07015 3.82472 21.4916 -0.175476 15.1011 2.87421 6.12742 10.8239 -2.84217e-014 0 -18.6773 0.440076 3.99671 28.5356 -2.84217e-014 0 -0.367793 0.545786 2.75151 24.5315 0 2.84217e-014 1.59888 0.560958 0.459748 -3.77033 21.4916 -0.175476 -15.3726 -2.66118 7.8129 -10.8239 0 -2.84217e-014 11.7383 -4.47477 -2.91887 -28.5356 2.84217e-014 -2.84217e-014 0.916511 9.74167 -2.04691 -24.5315 0 -2.84217e-014 -0.722821 9.75821 -0.062838 9.52968 0 2.84217e-014 -2.19952 3.59473 1.45467 3.55271e-015 -40.1884 -2.84217e-014 0.083642 8.79279 -5.27317 -8.88178e-016 -39.9954 0 7.07391 -19.9608 0.582838 0 -6.19429 14.2945 4.96962e-017 0 -0 -9.52968 0 0 3.81802 2.89045 5.37283 0 -40.1884 -2.84217e-014 -0.553571 9.61678 -2.17453 3.55271e-015 -39.9954 -2.84217e-014 0.923712 -20.8672 0.347057 0 -6.19429 14.2945 5.96354e-016 -1.59028e-015 -0 
0 0 0 0 0 -0 -11.6196 80.054 -202.199 -0.361274 -3.72778 5.05606 -1.77636e-015 7.81434 2.84217e-014 -0.912717 -0.549642 -0.532981 0 23.3781 0 0.865499 -4.25754 -0.496541 0 23.2821 2.11656 3.33131 25.4451 2.48001 0 13.3416 -1.90594 -4.88584 -4.13278 2.00831 3.82472 21.4916 -0.175476 15.1245 2.86542 6.04933 10.8239 2.84217e-014 0 -18.7326 0.574569 4.00708 28.5356 0 0 -0.250019 0.434964 2.72494 24.5315 -2.84217e-014 0 1.46457 0.446872 0.462021 -3.77033 21.4916 -0.175476 -15.4084 -2.66741 7.79488 -10.8239 0 0 11.7165 -4.48221 -2.98174 -28.5356 0 0 0.871382 9.7139 -2.02875 -24.5315 2.84217e-014 0 -0.628663 9.72956 -0.081807 9.52968 1.42109e-014 0 -2.2189 3.74557 1.41549 -3.55271e-015 -40.1884 2.84217e-014 0.05622 8.52389 -5.25719 4.44089e-016 -39.9954 0 7.12456 -19.9167 0.612109 0 -6.19429 14.2945 -5.96354e-016 1.59028e-015 -0 -9.52968 0 0 3.76274 2.94145 5.52847 -3.55271e-015 -40.1884 0 -0.4587 9.54109 -2.17359 0 -39.9954 2.84217e-014 0.993823 -20.5552 0.371634 0 -6.19429 14.2945 -1.39149e-015 1.59028e-015 -3.18055e-015 
0 0 0 0 0 -0 -11.6645 80.0042 -202.07 -0.526847 -4.01151 5.13802 1.77636e-015 7.81434 0 -0.727163 -0.356531 -0.554669 1.77636e-015 23.3781 -2.84217e-014 0.831553 -4.22755 -0.521801 1.77636e-015 23.2821 2.11656 3.34375 25.4762 2.45831 -3.55271e-015 13.3416 -1.90594 -4.8549 -4.08684 1.99527 3.82472 21.4916 -0.175476 15.1609 2.84011 5.98237 10.8239 0 2.84217e-014 -18.632 -0.040322 3.96478 28.5356 0 0 -0.2942 0.683935 2.80079 24.5315 0 2.84217e-014 1.48149 0.695886 0.367184 -3.77033 21.4916 -0.175476 -15.4283 -2.70298 7.76484 -10.8239 0 2.84217e-014 11.6863 -4.57482 -3.04758 -28.5356 0 0 0.855406 9.70958 -2.00862 -24.5315 0 -2.84217e-014 -0.56234 9.72479 -0.086527 9.52968 1.42109e-014 0 -1.91441 4.2825 1.5677 3.55271e-015 -40.1884 0 -0.060075 8.10066 -5.52328 1.33227e-015 -39.9954 -2.84217e-014 7.25613 -20.2092 0.592243 0 -6.19429 14.2945 6.70898e-016 -1.59028e-015 -1.98785e-016 -9.52968 0 0 4.01548 3.43407 5.67637 3.55271e-015 -40.1884 0 -0.480342 9.26013 -2.37616 -3.55271e-015 -39.9954 0 0.28124 -20.0875 -2.21285 3.55271e-015 -6.19429 14.2945 1.98785e-016 4.77083e-015 -7.95139e-016 
0 0 0 0 0 -0 -11.6404 80.001 -202.021 -0.469147 -3.93844 5.21479 -1.77636e-015 7.81434 2.84217e-014 -0.699001 -0.432673 -0.556462 -1.77636e-015 23.3781 0 0.566349 -4.28482 -0.532631 -1.77636e-015 23.2821 2.11656 3.7519 25.5465 2.37231 -3.55271e-015 13.3416 -1.90594 -5.05316 -4.04382 1.91155 3.82472 21.4916 -0.175476 15.34 2.86218 5.90986 10.8239 0 2.84217e-014 -18.6524 -0.191189 3.946 28.5356 -2.84217e-014 0 -0.225679 0.702211 2.75354 24.5315 0 0 1.36938 0.711703 0.342629 -3.77033 21.4916 -0.175476 -15.0743 -2.8061 7.71686 -10.8239 0 0 11.4317 -4.57429 -3.14024 -28.5356 2.84217e-014 0 0.839091 9.7268 -1.98406 -24.5315 2.84217e-014 -2.84217e-014 -0.527446 9.74162 -0.108985 9.52968 -1.42109e-014 0 -1.98792 4.40986 1.53456 0 -40.1884 -2.84217e-014 -0.080997 7.76705 -5.53891 0 -39.9954 -2.84217e-014 7.26808 -20.1097 0.532275 -8.88178e-016 -6.19429 14.2945 -2.23633e-016 0 -2.98177e-016 -9.52968 0 -2.84217e-014 3.89905 3.49823 5.65911 -3.55271e-015 -40.1884 -2.84217e-014 -0.413126 9.05794 -2.41177 0 -39.9954 0 1.30763 -20.2256 -0.671157 -3.55271e-015 -6.19429 14.2945 -5.96354e-016 -1.59028e-015 -0 
0 0 0 0 0 -0 -11.618 79.997 -201.968 -0.410707 -3.88008 5.28733 0 7.81434 0 -0.72943 -0.521792 -0.56747 0 23.3781 0 0.532168 -4.28902 -0.544288 0 23.2821 2.11656 3.75276 25.5452 2.35068 3.55271e-015 13.3416 -1.90594 -5.03694 -3.95416 1.89576 3.82472 21.4916 -0.175476 15.3448 2.84104 5.84783 10.8239 -2.84217e-014 0 -18.6485 -0.195341 3.94315 28.5356 2.84217e-014 0 -0.176549 0.661833 2.72772 24.5315 2.84217e-014 0 1.28449 0.669724 0.320298 -3.77033 21.4916 -0.175476 -15.1159 -2.83219 7.67939 -10.8239 -2.84217e-014 0 11.3871 -4.66763 -3.19449 -28.5356 2.84217e-014 0 0.842544 9.73124 -1.97236 -24.5315 0 0 -0.630089 9.74612 -0.108985 9.52968 1.42109e-014 0 -2.13613 4.56265 1.65735 3.55271e-015 -40.1884 -2.84217e-014 0.07663 7.38148 -5.37678 8.88178e-016 -39.9954 0 7.06634 -20.0282 0.100927 0 -6.19429 14.2945 -9.93923e-017 1.59028e-015 9.93923e-017 -9.52968 1.42109e-014 0 3.78822 3.61167 5.55816 3.55271e-015 -40.1884 -2.84217e-014 -0.351354 8.78613 -2.49234 3.55271e-015 -39.9954 0 3.19344 -20.6972 -0.138981 3.55271e-015 -6.19429 14.2945 3.97569e-016 0 1.59028e-015 
0 0 0 0 0 -0 -11.5893 79.9936 -201.913 -0.327875 -3.80916 5.35991 0 7.81434 2.84217e-014 -0.810319 -0.605619 -0.56704 1.77636e-015 23.3781 -2.84217e-014 0.535229 -4.33212 -0.542497 1.77636e-015 23.2821 2.11656 3.79585 25.5825 2.30174 0 13.3416 -1.90594 -5.06754 -3.88131 1.84784 3.82472 21.4916 -0.175476 15.3419 2.83839 5.76111 10.8239 2.84217e-014 0 -18.6462 -0.280325 3.93873 28.5356 -2.84217e-014 -2.84217e-014 -0.137328 0.674023 2.6957 24.5315 -2.84217e-014 -2.84217e-014 1.29144 0.680958 0.317728 -3.77033 21.4916 -0.175476 -15.1418 -2.83394 7.60022 -10.8239 0 2.84217e-014 11.3269 -4.66818 -3.21757 -28.5356 0 0 0.804565 9.69361 -1.98345 -24.5315 0 0 -0.597039 9.70776 -0.082032 9.52968 -1.42109e-014 2.84217e-014 -2.23171 4.6531 1.66502 0 -40.1884 0 0.046431 7.13246 -5.39264 0 -39.9954 0 7.08026 -19.9267 0.03521 0 -6.19429 14.2945 -2.98177e-016 -3.18055e-015 -0 -9.52968 1.42109e-014 2.84217e-014 3.63638 3.74989 5.46038 -3.55271e-015 -40.1884 -2.84217e-014 -0.266881 8.43914 -2.64436 0 -39.9954 0 2.60295 -20.4035 -2.02074 0 -6.19429 14.2945 7.95139e-016 4.77083e-015 1.59028e-015 
